<svg xmlns="http://www.w3.org/2000/svg" xmlns:xlink="http://www.w3.org/1999/xlink" viewBox="0 0 300.62 300.62"><defs><style>.cls-1,.cls-10,.cls-11,.cls-13,.cls-16,.cls-20,.cls-21,.cls-22,.cls-5,.cls-8{fill:none;}.cls-2{fill:#f93;}.cls-3{fill:#0ca4f4;opacity:0.07;}.cls-19,.cls-20,.cls-21,.cls-3{stroke:#fff;}.cls-10,.cls-11,.cls-13,.cls-16,.cls-19,.cls-20,.cls-21,.cls-22,.cls-3,.cls-5,.cls-7,.cls-8{stroke-miterlimit:10;}.cls-22,.cls-3{stroke-width:0.25px;}.cls-4,.cls-7{fill:#797d89;}.cls-5{stroke:#ccc;}.cls-6{fill:#069;}.cls-11,.cls-7{stroke:#069;}.cls-10,.cls-8{stroke:#797d89;}.cls-19,.cls-9{fill:#f15e4a;}.cls-10,.cls-11,.cls-16{stroke-linecap:round;}.cls-12{fill:#eacbc6;}.cls-13{stroke:#c69c6d;}.cls-14{fill:#333;}.cls-15{fill:#8c6239;}.cls-16{stroke:#a67c52;}.cls-17{fill:#22b573;}.cls-18{fill:url(#Dots);}.cls-19{stroke-width:0.15px;}.cls-20{stroke-width:0.25px;}.cls-21{stroke-width:0.25px;}.cls-22{stroke:#e6e6e6;}</style><pattern id="Dots" data-name="Dots" width="49.54" height="49.1" patternTransform="translate(-18.58 -11) scale(0.54)" patternUnits="userSpaceOnUse" viewBox="0 0 49.54 49.1"><rect class="cls-1" width="49.54" height="49.1"/><circle class="cls-2" cx="9.93" cy="23.78" r="3"/><circle class="cls-2" cx="13.93" cy="41.78" r="3"/><circle class="cls-2" cx="7.93" cy="8.78" r="3"/><circle class="cls-2" cx="37.93" cy="11.78" r="3"/><circle class="cls-2" cx="39.93" cy="23.78" r="3"/><circle class="cls-2" cx="25.93" cy="6.78" r="3"/><circle class="cls-2" cx="37.93" cy="40.78" r="3"/><circle class="cls-2" cx="25.93" cy="30.78" r="3"/><circle class="cls-2" cx="19.93" cy="17.78" r="3"/></pattern></defs><g id="Layer_2" data-name="Layer 2"><g id="Layer_1-2" data-name="Layer 1"><circle class="cls-3" cx="150.31" cy="150.31" r="150.19"/></g><g id="Sofa"><path id="Legs" class="cls-4" d="M56.67,224.15s2.94,19.57-7.2,25.58a6.19,6.19,0,0,0-2.43-.48c-2.48,0-4.5,1.33-4.5,3s2,3,4.5,3,4.27-1.18,4.48-2.7h0c10.79-6.48,16.19-28.07,16.19-28.07Z"/><path class="cls-5" d="M64.05,229.74a17.74,17.74,0,0,1-3.86,10.32"/><path class="cls-5" d="M44,252.26a5.59,5.59,0,0,0,5.11.12"/><path id="Legs-2" data-name="Legs" class="cls-4" d="M188.56,224.69s-2.95,19.57,7.19,25.58a6.28,6.28,0,0,1,2.44-.48c2.48,0,4.5,1.33,4.5,3s-2,3-4.5,3-4.28-1.18-4.48-2.7h0c-10.8-6.48-16.2-28.07-16.2-28.07Z"/><path class="cls-5" d="M181.18,230.28A17.74,17.74,0,0,0,185,240.6"/><path class="cls-5" d="M201.28,252.8a5.61,5.61,0,0,1-5.12.12"/><path id="Base" class="cls-6" d="M200.12,154.78c-3.89,1-6.74,3.79-8.77,8.11V113.21h0v-.27c0-38-30.45-68.82-68-68.82S54.24,75.2,54.24,113.21v46.63a12.07,12.07,0,0,0-7-5.06c-10.8-2.7-26,10.95-17.81,29.15,10.25,22.67,3.77,38.33,18.35,42.1,4.87,1.22,8.17,1.12,10.37,0H189.21c2.2,1.12,5.5,1.22,10.37,0,14.57-3.77,8.1-19.43,18.35-42.1C226.17,165.73,210.91,152.08,200.12,154.78Z"/><path id="Cushion" class="cls-7" d="M190.27,210.38c-3.24,9.72-18.35,8.81-64.78,9.72-55.06,1.08-66.93-2.16-69.63-11.34-5.18-17.61,31-14.57,69.63-14.57S196.07,193,190.27,210.38Z"/><path class="cls-8" d="M128.61,102.4a19.17,19.17,0,0,1,2.15-5.34c2.91-5.11,7.36-9.17,10.5-14.12,3.79-6,5.54-13,6-20.09"/><g id="circles"><circle class="cls-9" cx="41.01" cy="179.34" r="4.86"/><circle class="cls-9" cx="205.11" cy="179.34" r="4.86"/><path class="cls-10" d="M87,134.4a3.86,3.86,0,0,1,4.28,4.11"/><path class="cls-10" d="M94.45,142.21a4,4,0,0,1,4,2.48"/><path class="cls-10" d="M89.94,141.78a3.87,3.87,0,0,0-3.32,1.14"/><circle class="cls-9" cx="92.02" cy="141.28" r="2.7"/><path class="cls-10" d="M115.94,112.41a3.86,3.86,0,0,1,5.74,1.49"/><path class="cls-10" d="M126.28,115.57a4,4,0,0,1,4.73.2"/><path class="cls-10" d="M122.13,117.4a3.87,3.87,0,0,0-2.34,2.61"/><circle class="cls-9" cx="123.33" cy="115.37" r="2.7"/><path class="cls-10" d="M115.35,174.1a3.86,3.86,0,0,1,4.62-3.72"/><path class="cls-10" d="M124.06,167.68a4,4,0,0,1,3-3.67"/><path class="cls-10" d="M123.05,172.1a3.87,3.87,0,0,0,.7,3.44"/><circle class="cls-9" cx="122.79" cy="169.89" r="2.7"/></g></g><g id="Lamp"><path class="cls-10" d="M39.18,173a7.08,7.08,0,0,1,6.47,3.69"/><path class="cls-10" d="M205,172.22a7.09,7.09,0,0,1,5.28,5.25"/><path class="cls-10" d="M32.27,184.93a28,28,0,0,1,3.36,6c1,2.76,1.3,5.76,2.35,8.51"/><path class="cls-10" d="M64.05,92.18a104.22,104.22,0,0,0-5.56,32.12"/><path class="cls-10" d="M154.54,54.9c3.57,2.27,7.23,4.63,9.76,8"/><path class="cls-8" d="M55.67,178.8,56,202.09"/><path class="cls-8" d="M190.37,178.1a121.78,121.78,0,0,1,0,23.46c0,.41-.34,1-.68.74"/><path class="cls-9" d="M231.57,243H230s-.81-69.91-.54-97.17c.16-16.73,1.08-71.25,1.08-71.25h1.08s1.08,56.14,1.08,71.25S231.57,243,231.57,243Z"/><polygon class="cls-2" points="259.91 75.43 201.61 74.89 215.64 36.02 245.33 36.02 259.91 75.43"/><line class="cls-11" x1="217.8" y1="37.64" x2="244.25" y2="37.64"/><line class="cls-11" x1="205.92" y1="72.19" x2="255.59" y2="72.19"/><path class="cls-9" d="M255.32,252.76a2.45,2.45,0,0,1,0,.27H205.61a2.51,2.51,0,0,1,0-.27c.54-2.16,7.39-3.86,14-5.94,4-1.26,5.5-3.78,11.34-3.78,5,0,7.57,2.43,10.25,3.78C244.52,248.44,255.32,250.6,255.32,252.76Z"/><line class="cls-11" x1="209.41" y1="251.93" x2="235.26" y2="252.02"/></g><g id="Girl"><path id="Legs-3" data-name="Legs" class="cls-12" d="M110.65,192.3a10.37,10.37,0,0,0-4.32,2.7c-2.16,2.15-5.4,4.85-14.58,4.85s-16.19.54-19.43,2.16-5.94,3.78-5.94,5.4,2.7,3.24,8.64,2.7c-6.48,1.62-10.8,3.24-10.26,5.94s8.64,3.78,15.66,2.16,14.57-1.08,18.35-1.08,13.5,0,17.28-1.08,2.69-1.08,2.69-1.08l5.94-11.34-14-11.33"/><path class="cls-13" d="M76.7,209.9a76.41,76.41,0,0,0,12.75-.47c6.48-1,12.71-3.57,19.26-3.86a51.87,51.87,0,0,1,6.82.28"/><path id="Pant" class="cls-14" d="M135.77,169s-4.61.94-4.61,10.12c-3.78,0-21.59,13-21.59,13s-4.59,6.74,1.35,11.6c2.16,1.62,7,1.08,7,1.08s-5.4,7-.54,11.34c5.93,0,52.36,8.1,62.07-10.8,9.18-18.89,10.53-25.37,6.48-31.31-1.35-21.59-39.13-18.35-39.13-18.35Z"/><path id="Neck" class="cls-12" d="M170,95.13a3.53,3.53,0,0,0,1.62,4.32c2.7,1.6,7.55,0,7.55,0L170,114l-4.86,1.62L155.45,100a14.77,14.77,0,0,0,4.86,0c3.22-.36,3-4.66,3-4.66Z"/><path id="hair" class="cls-15" d="M182.44,73.7c0,11-6,20.89-16.73,20.89s-17.82-9.92-17.82-20.89S159.14,55.51,165.72,60C173.94,55,182.44,62.73,182.44,73.7Z"/><path id="face" class="cls-12" d="M176.23,83c0,7.61-4.83,13.5-10.79,13.5s-10.8-6.16-10.8-13.77,5.11-12.41,11.07-12.41S176.23,75.38,176.23,83Z"/><path id="Nose" class="cls-16" d="M166.38,79.66c.21,1.48.35,3,.42,4.46,0,.66-.06,1.48-.68,1.71a2.51,2.51,0,0,1-1.68-1"/><path id="Lips" class="cls-16" d="M163.17,89.77a7.5,7.5,0,0,0,2.32.56,2.58,2.58,0,0,0,2.14-.87"/><g id="Body"><path class="cls-17" d="M174.89,168.54c-3.78-3.23-12.42-11.33-24.84-4.31s-13.49,6-13.49,2.16l3.78-59.5a6.92,6.92,0,0,1,6.9-6.9l9.36-.19a1.24,1.24,0,0,1,1.2.85c.76,2.4,3.39,9.16,9.53,13.1A25.31,25.31,0,0,0,176,100.3a1.23,1.23,0,0,1,1.17-.93l9.55-.19c3.8,0,7.56,3.92,7.56,7.71,0,0-1.31,40.93-3.78,60C188.38,183.66,179.2,173.94,174.89,168.54Z"/><path class="cls-18" d="M174.89,168.54c-3.78-3.23-12.42-11.33-24.84-4.31s-13.49,6-13.49,2.16l3.78-59.5a6.92,6.92,0,0,1,6.9-6.9l9.36-.19a1.24,1.24,0,0,1,1.2.85c.76,2.4,3.39,9.16,9.53,13.1A25.31,25.31,0,0,0,176,100.3a1.23,1.23,0,0,1,1.17-.93l9.55-.19c3.8,0,7.56,3.92,7.56,7.71,0,0-1.31,40.93-3.78,60C188.38,183.66,179.2,173.94,174.89,168.54Z"/></g><polygon id="Book" class="cls-19" points="150.75 108.53 164.79 116.09 178.28 108.53 178.28 125.26 164.79 132.28 150.75 125.26 150.75 108.53"/><path class="cls-12" d="M143.26,106.64s-13.17-3.88-11.14,33.42c1.23,22.74.47,24.51,5.06,28.1,5.57,4.36,21.78-32,25.33-35.36s8.1-8.72,8.1-8.72,2-2.91-4.56-1.46-10.13,5.33-11.14,9.21c-.86,3.27-10.39,15.54-13.33,19.26a.35.35,0,0,1-.63-.25c.92-5.48,4.34-26.21,4.34-32.09C145.29,113.42,146.81,108.09,143.26,106.64Z"/><path class="cls-17" d="M144.43,100.06a9.69,9.69,0,0,0-10.66,7.64c-1.27,6.21-2.64,14.41-2.34,19.78.54,9.66,1.62,25.24,1.62,30.07s-.54,11.81,4.32,12.88,9.18-5.9,11.33-9.66,7-12.35,7-12.35-8.63-3.22-8.1-6.44c-1.61,2.15-4.31,5.9-4.31,5.9s3.78-23.08,4.31-27.92c.34-3,.89-9.84,1.26-14.51a5.05,5.05,0,0,0-4.45-5.39Z"/><path class="cls-18" d="M144.43,100.06a9.69,9.69,0,0,0-10.66,7.64c-1.27,6.21-2.64,14.41-2.34,19.78.54,9.66,1.62,25.24,1.62,30.07s-.54,11.81,4.32,12.88,9.18-5.9,11.33-9.66,7-12.35,7-12.35-8.63-3.22-8.1-6.44c-1.61,2.15-4.31,5.9-4.31,5.9s3.78-23.08,4.31-27.92c.34-3,.89-9.84,1.26-14.51a5.05,5.05,0,0,0-4.45-5.39Z"/><path class="cls-20" d="M144.43,100.06a9.69,9.69,0,0,0-10.66,7.64c-1.27,6.21-2.64,14.41-2.34,19.78.54,9.66,1.62,25.24,1.62,30.07s-.54,11.81,4.32,12.88,9.18-5.9,11.33-9.66,7-12.35,7-12.35-8.63-3.22-8.1-6.44c-1.61,2.15-4.31,5.9-4.31,5.9s3.78-23.08,4.31-27.92c.34-3,.89-9.84,1.26-14.51a5.05,5.05,0,0,0-4.45-5.39Z"/><path class="cls-12" d="M182.54,101.34l.31-.06c2.14-.35,14.48-1.69,15,14.09.54,17.28,5.4,43.73-12.42,47.51s-21,1.62-24.29,4.32S152.48,178,152.48,178s-3.78,3.24-2.7-2.16a20,20,0,0,1,3.24-8.09l-2.16.53s-1.62,0,0-2.15a18.71,18.71,0,0,1,13.5-6.48c6.48,0,18.35-7,18.89-7.56s2.16-3.78,1.62-13-.54-16.74.54-21.6S182.54,101.34,182.54,101.34Z"/><path class="cls-17" d="M185.71,99.17l.17,0a10.37,10.37,0,0,1,11.81,6.9,28.5,28.5,0,0,1,1.76,10.41c-.54,8.1,1.08,16.2.54,23.75s-1.62,19.44-11.34,22.68-12.42,2.7-12.42,2.7.54-8.1-2.15-9.72c2.69-1.62,7-2.16,8.09-4.86s.54-9.18.54-15.65,1.08-15.66,1.08-20.52c0-2-1-4.6-2.3-7.07A6,6,0,0,1,185.71,99.17Z"/><path class="cls-18" d="M185.71,99.17l.17,0a10.37,10.37,0,0,1,11.81,6.9,28.5,28.5,0,0,1,1.76,10.41c-.54,8.1,1.08,16.2.54,23.75s-1.62,19.44-11.34,22.68-12.42,2.7-12.42,2.7.54-8.1-2.15-9.72c2.69-1.62,7-2.16,8.09-4.86s.54-9.18.54-15.65,1.08-15.66,1.08-20.52c0-2-1-4.6-2.3-7.07A6,6,0,0,1,185.71,99.17Z"/><path class="cls-21" d="M185.71,99.17l.17,0a10.37,10.37,0,0,1,11.81,6.9,28.5,28.5,0,0,1,1.76,10.41c-.54,8.1,1.08,16.2.54,23.75s-1.62,19.44-11.34,22.68-12.42,2.7-12.42,2.7.54-8.1-2.15-9.72c2.69-1.62,7-2.16,8.09-4.86s.54-9.18.54-15.65,1.08-15.66,1.08-20.52c0-2-1-4.6-2.3-7.07A6,6,0,0,1,185.71,99.17Z"/><path class="cls-22" d="M134.22,201.2A33.08,33.08,0,0,0,152,196c5.17-3.52,9.07-9.15,9.68-15.38"/></g></g></svg>